<svg width="177" height="40" viewBox="0 0 177 40" fill="none" xmlns="http://www.w3.org/2000/svg">
<path d="M165.424 11.2279V29.2728H148.461V11.2279H165.424Z" fill="#FF3159"/>
<path d="M176.931 7.185V16.617H168.043V7.185H176.931Z" fill="#FF8E2F"/>
<path d="M164.129 1.79626V8.53339H157.602V1.79626H164.129Z" fill="#01AAF3"/>
<path fill-rule="evenodd" clip-rule="evenodd" d="M126.694 39.7885V31.8096L131.316 26.7105L139.366 39.7885H146.375L135.455 22.2984L145.613 11.2548H138.807L126.694 24.0157V3.99985H120.777V39.7885H126.694ZM11.5005 10.8317C14.9288 10.8317 18.5856 11.8885 21.0234 13.7115L18.8649 18.2558C16.4524 16.697 13.4305 15.7459 11.018 15.7459C8.70709 15.7459 7.00566 16.5385 7.00566 18.5728C7.00566 20.7484 9.51358 21.5302 12.4398 22.4424C16.5497 23.7237 21.4848 25.2622 21.4552 31.2809C21.4552 37.0933 16.4778 39.7089 10.9926 39.7089C6.98026 39.7089 2.73937 38.335 0.0221558 35.7459L2.1299 31.3601C4.4916 33.553 8.27538 34.874 11.2465 34.874C13.7606 34.874 15.716 33.9757 15.716 31.8357C15.716 29.3401 13.0709 28.515 10.0562 27.5747C6.04954 26.325 1.38987 24.8716 1.41886 19.022C1.46965 13.2888 6.29461 10.8317 11.5005 10.8317ZM35.0666 10.8317C38.4949 10.8317 42.1517 11.8885 44.615 13.7115L42.4564 18.2558C40.044 16.697 37.022 15.7459 34.6095 15.7459C32.2986 15.7459 30.5972 16.5385 30.5972 18.5728C30.5972 20.7484 33.1051 21.5302 36.0313 22.4424C40.1413 23.7237 45.0764 25.2622 45.0467 31.2809C45.0467 37.0933 40.0694 39.7089 34.5841 39.7089C30.5718 39.7089 26.3309 38.335 23.6137 35.7459L25.7214 31.3601C28.0831 33.553 31.8669 34.874 34.8381 34.874C37.3521 34.874 39.3075 33.9757 39.3075 31.8357C39.3075 29.3401 36.6625 28.515 33.6478 27.5747C29.6411 26.325 24.9814 24.8716 25.0104 19.022C25.0358 13.2888 29.8354 10.8317 35.0666 10.8317ZM64.4227 32.9982L65.8956 37.701C63.7371 39.0484 61.477 39.7881 59.1915 39.7881C55.1029 39.7881 51.5477 37.3311 51.5477 31.5187V16.7498H47.7131V12.1527H51.5477V4.35881H57.3884V12.1527H69.9332H70.1619H73.7678V4.35881H79.6085V12.1527H87.6586V16.7498H79.6085V30.3826C79.6085 33.3152 80.6751 34.2399 82.5289 34.2399C83.7478 34.2135 85.043 33.7908 86.6174 32.9718L88.1157 37.6745C85.9572 39.022 83.6971 39.7617 81.4116 39.7617C77.323 39.7617 73.7678 37.3046 73.7678 31.4922V16.7498H70.1619H69.9332H57.3884V30.3826C57.3884 33.3152 58.455 34.2399 60.3088 34.2399C61.5532 34.2135 62.8483 33.7908 64.4227 32.9982ZM103.937 10.8846C113.51 10.8846 117.421 17.4103 116.685 27.6613H96.0896C97.0038 32.0471 100.254 34.7683 104.546 34.7683C107.517 34.7683 110.234 33.6058 112.241 31.4658L115.364 34.9268C112.698 37.9651 108.812 39.7353 104.089 39.7353C95.6833 39.7353 90.1473 33.9229 90.1473 25.3628C90.1473 16.7498 95.8356 10.9374 103.937 10.8846ZM95.988 23.1699H111.58C111.377 18.5728 108.457 15.7987 103.987 15.7987C99.6702 15.7987 96.6483 18.6257 95.988 23.1699Z" fill="white"/>
</svg>
